<svg width="1080" height="1080" viewBox="0 0 1080 1080" fill="none" xmlns="http://www.w3.org/2000/svg">
<g clip-path="url(#clip0)">
<rect width="1080" height="1080" fill="white"/>
<rect y="-68" width="1090" height="1276" fill="#731500"/>
<g filter="url(#filter0_d)">
<path d="M228.463 773.63C225.193 769.047 227.155 764.465 235.002 754.646C240.234 757.046 251.483 762.109 254.622 763.156C258.546 764.465 259.2 773.63 257.892 783.449C256.584 793.268 248.736 785.413 240.888 783.449C233.04 781.485 231.732 778.212 228.463 773.63Z" fill="black"/>
<path d="M189.877 803.742C185.299 809.633 183.991 803.087 178.105 794.577L187.261 791.959C189.659 793.922 193.54 799.028 189.877 803.742Z" fill="black"/>
<path d="M683.281 447.317C683.717 443.826 683.15 436.844 677.395 436.844C673.253 442.081 667.454 452.947 677.395 454.518C687.335 456.089 685.461 450.372 683.281 447.317Z" fill="black"/>
<path d="M396.537 586.413C393.267 591.65 384.766 584.449 385.42 581.176L391.959 576.594C394.575 578.121 399.153 582.223 396.537 586.413Z" fill="black"/>
<path d="M767.822 686.567C760.628 686.567 769.784 676.748 775.016 674.784L778.94 681.985C777.632 683.512 773.577 686.567 767.822 686.567Z" fill="black"/>
<path d="M820.795 661.692C816.609 665.882 816.435 659.947 816.871 656.455L820.795 651.873C822.539 653.401 824.981 657.503 820.795 661.692Z" fill="black"/>
<path d="M344.218 651.873C342.256 652.528 342.91 649.909 342.91 648.6C343.564 648.6 345.003 648.731 345.526 649.255C346.18 649.909 346.18 651.219 344.218 651.873Z" fill="black"/>
<path d="M350.104 757.265C348.796 755.955 349.45 753.992 350.758 753.992C352.284 755.083 355.205 757.788 354.682 759.883C354.028 762.501 351.412 758.574 350.104 757.265Z" fill="black"/>
<path d="M255.93 579.212C252.66 579.867 251.352 572.011 253.968 570.702C255.058 571.139 257.63 572.273 259.2 573.321C261.162 574.63 259.2 578.557 255.93 579.212Z" fill="black"/>
<path d="M949.924 593.666C946 594.321 946.654 591.702 946 587.775C948.398 587.775 953.717 588.037 955.81 589.084C958.426 590.393 953.848 593.012 949.924 593.666Z" fill="black"/>
<path d="M68.8896 782.14C70.1975 784.103 76.0834 782.14 74.7755 780.83C73.4675 779.521 67.5816 779.521 68.8896 782.14Z" fill="black"/>
<path d="M239.01 371.048C237.702 370.393 237.048 367.775 239.01 365.811C239.01 366.247 239.402 367.382 240.972 368.429C242.541 369.477 240.318 370.611 239.01 371.048Z" fill="black"/>
<path d="M199.77 242.745C200.424 244.709 205.002 243.4 203.04 240.781C201.078 238.163 199.145 242.016 199.77 242.745Z" fill="black"/>
<path d="M41.1852 101.351C43.1472 102.005 47.0711 95.4592 46.4171 91.5316C45.3685 85.2341 41.3779 84.018 37.9153 85.6651C34.3532 87.3595 31.3498 92.0839 32.6834 97.423C33.3374 100.041 39.2233 100.696 41.1852 101.351Z" fill="black"/>
<path d="M374.065 151.755C374.719 156.337 381.259 156.992 382.567 154.374C383.875 151.755 376.027 149.137 374.065 151.755Z" fill="black"/>
<path d="M534.292 120.334C532.984 122.298 538.87 130.153 541.486 126.88C544.102 123.607 537.562 117.716 534.292 120.334Z" fill="black"/>
<path d="M483.935 261.074C480.011 267.62 475.433 265.656 468.239 261.074C468.239 255.837 478.049 248.637 483.935 247.982C489.821 247.328 487.859 254.528 483.935 261.074Z" fill="black"/>
<path d="M897.909 109.206C892.023 111.17 891.369 100.696 893.331 96.7684C895.511 96.7684 901.048 97.423 905.757 100.041C911.643 103.314 903.795 107.242 897.909 109.206Z" fill="black"/>
<path d="M1005.16 230.308C997.315 228.999 1000.58 219.834 1003.2 215.906C1006.47 218.089 1013.66 223.631 1016.28 228.344C1019.55 234.235 1013.01 231.617 1005.16 230.308Z" fill="black"/>
<path d="M1041.79 228.344C1039.17 233.581 1031.32 228.344 1031.32 223.107C1033.72 221.798 1039.17 219.572 1041.79 221.143C1045.06 223.107 1044.4 223.107 1041.79 228.344Z" fill="black"/>
<path d="M927.992 342.9C923.414 344.864 921.452 353.373 927.992 350.755C933.224 348.66 930.172 344.645 927.992 342.9Z" fill="black"/>
<path d="M788.336 470.883C794.876 473.502 794.876 468.265 793.568 466.301C792.26 464.337 786.374 470.283 788.336 470.883Z" fill="black"/>
<path d="M712.473 607.696C709.857 609.005 708.549 620.133 714.435 618.169C719.144 616.598 715.089 610.532 712.473 607.696Z" fill="black"/>
<path d="M1012.36 786.722C1015.63 789.34 1013.66 792.613 1010.39 792.613C1007.12 792.613 1009.09 786.722 1012.36 786.722Z" fill="black"/>
</g>
<g filter="url(#filter1_df)">
<path d="M469.486 282.023C377.486 228.023 357.486 378.023 299.486 336.023C261.486 324.023 203.486 296.423 275.486 282.023C365.486 264.023 335.486 192.023 225.486 162.023C115.486 132.023 285.486 142.023 405.486 124.023C525.486 106.023 503.486 64.0231 435.486 8.02307C367.486 -47.9769 535.486 -21.9769 607.486 -13.9769C679.486 -5.97693 711.486 12.0231 801.486 22.0231C891.486 32.0231 837.486 58.0231 865.486 124.023C893.486 190.023 769.486 250.023 785.486 246.023C801.486 242.023 837.486 222.023 947.486 262.023C1057.49 302.023 967.486 348.023 925.486 392.023C883.486 436.023 835.486 322.023 729.486 318.023C623.486 314.023 727.486 336.023 749.486 376.023C771.486 416.023 749.486 430.023 635.486 446.023C521.486 462.023 565.486 450.023 479.486 430.023C393.486 410.023 561.486 336.023 469.486 282.023Z" fill="#BA0002"/>
</g>
<g filter="url(#filter2_f)">
<path d="M670.378 96.4476C680.566 91.3449 660.189 51.9279 670.378 46.0962C675.653 43.0767 681.981 111.835 724.982 150.096C765.028 185.728 806.491 199.492 806.491 211.092C806.491 213.681 806.201 215.558 805.66 216.847C806.998 217.31 808.252 217.756 809.402 218.183C829.051 225.472 830.507 237.135 821.773 233.491C813.04 229.846 773.116 215.996 756.378 205.061C739.639 194.127 767.92 221.827 762.825 229.846C761.517 231.905 790.169 260.697 784.878 276.596C779.056 294.091 742.7 218.839 736.878 192.596C731.056 166.354 731.532 242.238 724.982 255.359C718.432 268.48 730.804 276.499 731.532 326.796C717.187 305.244 685.64 241.632 674.039 246.612C663.851 250.985 631.378 315.386 631.378 308.096C631.378 300.807 668.217 234.948 655.118 233.491C642.018 232.033 636.196 232.762 634.741 218.183C633.285 203.604 630.374 205.79 618.73 205.061C607.086 204.333 600.536 197.772 609.269 186.109C618.002 174.445 617.275 178.09 609.269 161.324C601.264 144.558 598.205 148.203 584.378 138.727C570.55 129.25 544.378 118.62 544.378 128.096C544.378 137.573 576.428 165.451 569.878 169.096C563.328 172.741 537.949 135.082 540.133 122.69C542.316 110.298 584.526 135.082 600.536 138.727C616.547 142.372 622.645 138.302 631.378 128.096C640.111 117.891 567.06 84.7843 580.159 73.1211C593.259 61.4579 630.374 120.503 641.29 122.69C652.207 124.877 668.611 105.195 659.878 96.4476C651.145 87.7001 612.908 77.7595 623.097 66.0963C633.285 54.4331 660.189 101.55 670.378 96.4476Z" fill="#FFB6B6" fill-opacity="0.3"/>
</g>
<g filter="url(#filter3_dd)">
<circle cx="681" cy="178" r="71" fill="#FB0103"/>
</g>
<path d="M664.67 203.515C663.25 206.355 650.47 207.065 656.86 209.195C654.848 210.378 650.47 211.325 649.05 205.645C647.275 198.545 652.6 197.125 656.86 190.735C661.12 184.345 661.83 180.795 664.67 179.375C667.51 177.955 676.74 171.565 667.51 170.855C658.28 170.145 677.45 163.755 683.84 158.075C690.23 152.395 685.97 151.685 677.45 141.745C671.06 138.195 673.19 142.455 664.67 145.295C656.15 148.135 656.86 150.975 650.47 151.685C644.08 152.395 649.05 148.845 652.6 145.295C656.15 141.745 659.7 143.165 661.83 137.485C663.96 131.805 650.47 137.485 643.37 140.325C636.27 143.165 636.98 139.615 636.98 137.485C636.98 135.355 644.79 130.385 650.47 128.255C656.15 126.125 656.86 123.995 659.7 119.735C662.54 115.475 671.06 114.765 678.87 116.185C686.68 117.605 684.55 122.575 688.81 128.255C693.07 133.935 698.75 130.385 706.56 128.255C714.37 126.125 719.34 136.775 722.18 137.485C725.02 138.195 729.28 152.395 729.28 154.525C729.28 156.655 726.44 165.175 726.44 168.015C726.44 170.855 724.31 178.665 724.31 182.925V194.285C724.547 196.651 725.304 201.811 726.44 203.515C727.86 205.645 728.57 211.325 729.28 212.745C729.99 214.165 721.47 224.105 715.79 229.075C710.11 234.045 709.4 231.205 706.56 233.335C703.72 235.465 681.71 231.915 673.19 231.205C664.67 230.495 667.51 224.105 667.51 219.135C667.51 214.165 676.74 219.135 681.71 221.265C686.68 223.395 691.65 221.265 693.07 219.135C694.49 217.005 691.65 209.195 695.2 206.355C698.75 203.515 700.88 201.385 698.75 197.125C696.62 192.865 686.68 194.285 688.81 190.735C690.94 187.185 690.23 185.055 676.74 185.055C663.25 185.055 672.48 192.865 673.19 194.285C673.9 195.705 666.09 200.675 664.67 203.515Z" fill="#FE7108"/>
</g>
<defs>
<filter id="filter0_d" x="29.3605" y="82" width="1017.64" height="727" filterUnits="userSpaceOnUse" color-interpolation-filters="sRGB">
<feFlood flood-opacity="0" result="BackgroundImageFix"/>
<feColorMatrix in="SourceAlpha" type="matrix" values="0 0 0 0 0 0 0 0 0 0 0 0 0 0 0 0 0 0 127 0"/>
<feOffset/>
<feGaussianBlur stdDeviation="1.5"/>
<feColorMatrix type="matrix" values="0 0 0 0 0 0 0 0 0 0 0 0 0 0 0 0 0 0 1 0"/>
<feBlend mode="normal" in2="BackgroundImageFix" result="effect1_dropShadow"/>
<feBlend mode="normal" in="SourceGraphic" in2="effect1_dropShadow" result="shape"/>
</filter>
<filter id="filter1_df" x="-44" y="-261" width="1278.12" height="948.437" filterUnits="userSpaceOnUse" color-interpolation-filters="sRGB">
<feFlood flood-opacity="0" result="BackgroundImageFix"/>
<feColorMatrix in="SourceAlpha" type="matrix" values="0 0 0 0 0 0 0 0 0 0 0 0 0 0 0 0 0 0 127 0"/>
<feOffset/>
<feGaussianBlur stdDeviation="25"/>
<feColorMatrix type="matrix" values="0 0 0 0 0.878431 0 0 0 0 0 0 0 0 0 0.0117647 0 0 0 1 0"/>
<feBlend mode="normal" in2="BackgroundImageFix" result="effect1_dropShadow"/>
<feBlend mode="normal" in="SourceGraphic" in2="effect1_dropShadow" result="shape"/>
<feGaussianBlur stdDeviation="117" result="effect2_foregroundBlur"/>
</filter>
<filter id="filter2_f" x="505" y="11" width="356.878" height="350.796" filterUnits="userSpaceOnUse" color-interpolation-filters="sRGB">
<feFlood flood-opacity="0" result="BackgroundImageFix"/>
<feBlend mode="normal" in="SourceGraphic" in2="BackgroundImageFix" result="shape"/>
<feGaussianBlur stdDeviation="17.5" result="effect1_foregroundBlur"/>
</filter>
<filter id="filter3_dd" x="482" y="-21" width="398" height="398" filterUnits="userSpaceOnUse" color-interpolation-filters="sRGB">
<feFlood flood-opacity="0" result="BackgroundImageFix"/>
<feColorMatrix in="SourceAlpha" type="matrix" values="0 0 0 0 0 0 0 0 0 0 0 0 0 0 0 0 0 0 127 0"/>
<feOffset/>
<feGaussianBlur stdDeviation="64"/>
<feColorMatrix type="matrix" values="0 0 0 0 1 0 0 0 0 0 0 0 0 0 0 0 0 0 1 0"/>
<feBlend mode="normal" in2="BackgroundImageFix" result="effect1_dropShadow"/>
<feColorMatrix in="SourceAlpha" type="matrix" values="0 0 0 0 0 0 0 0 0 0 0 0 0 0 0 0 0 0 127 0"/>
<feOffset/>
<feGaussianBlur stdDeviation="37"/>
<feColorMatrix type="matrix" values="0 0 0 0 1 0 0 0 0 0.265417 0 0 0 0 0.104167 0 0 0 1 0"/>
<feBlend mode="normal" in2="effect1_dropShadow" result="effect2_dropShadow"/>
<feBlend mode="normal" in="SourceGraphic" in2="effect2_dropShadow" result="shape"/>
</filter>
<clipPath id="clip0">
<rect width="1080" height="1080" fill="white"/>
</clipPath>
</defs>
</svg>
